<?xml version="1.0" encoding="utf-8"?>
<!-- Generator: Adobe Illustrator 23.0.0, SVG Export Plug-In . SVG Version: 6.00 Build 0)  -->
<svg version="1.1" id="Layer_1" xmlns="http://www.w3.org/2000/svg" xmlns:xlink="http://www.w3.org/1999/xlink" x="0px" y="0px"
	 width="160px" height="50px" viewBox="0 0 160 50" style="enable-background:new 0 0 160 50;" xml:space="preserve">
<style type="text/css">
	.st0{fill:#231916;}
	.st1{fill:#231F20;}
</style>
<g>
	<rect x="-520.96" y="21.13" class="st0" width="2.94" height="8.83"/>
	<polygon class="st0" points="-555,29.84 -555.02,21.34 -555.02,21 -551.87,21 -548.05,28 -548,28 -544.47,21 -541.22,21 
		-541.22,29.84 -543.8,29.84 -543.8,23.81 -543.84,23.81 -547.14,29.84 -548.91,29.84 -552.1,23.81 -552.15,23.81 -552.18,29.84 	
		"/>
	<polygon class="st0" points="-477.97,29.96 -477.97,21.04 -475.51,21.04 -475.51,25.11 -469.6,25.11 -469.6,21.04 -467.1,21.04 
		-467.1,29.96 -469.6,29.96 -469.6,26.15 -475.51,26.15 -475.51,29.96 	"/>
	<path class="st0" d="M-453.89,21h-2.04l-4.87,9h2.08l1.45-2.45h4.74l1.45,2.45h2.08L-453.89,21 M-454.88,23.43l0.38,0.65
		L-454.88,23.43L-454.88,23.43 M-456.66,26.5l1.74-3.07l1.76,3.07H-456.66z"/>
	<path class="st0" d="M-437.91,21h-2.04l-4.87,9h2.08l1.45-2.45h4.74l1.45,2.45h2.08L-437.91,21 M-438.88,23.43h0.37h-0.38H-438.88
		 M-440.68,26.5l1.75-3.07l1.76,3.07H-440.68z"/>
	<path class="st0" d="M-493.04,23.97c-0.36-0.54-1.14-1.42-3.24-1.42c-2.84,0-4.02,1.63-4.02,2.92c0,1.47,1.49,2.77,4.02,2.77
		c1.65,0,2.69-0.34,3.24-1.22h2.44c-0.89,1.89-3.07,2.91-5.69,2.91c-3.87,0-6.73-2.27-6.73-4.46c0-2.29,3.01-4.46,6.73-4.46
		c3.33,0,5.24,1.71,5.69,2.97H-493.04z"/>
</g>
<g>
	<g>
		<g>
			<path class="st0" d="M-360.44,13.06c0.6,0,1.11,0.21,1.52,0.62c0.41,0.41,0.62,0.91,0.62,1.5s-0.21,1.08-0.63,1.5
				c-0.42,0.41-0.92,0.62-1.51,0.62c-0.59,0-1.09-0.21-1.51-0.62c-0.42-0.41-0.63-0.91-0.63-1.5c0-0.6,0.21-1.1,0.63-1.51
				C-361.54,13.27-361.03,13.06-360.44,13.06z"/>
		</g>
		<g>
			<path class="st0" d="M-358.25,19.03l0.01,15.75h-3.72l-0.01-15.75H-358.25z"/>
		</g>
		<polygon class="st0" points="-358.5,19.84 -365.43,19.84 -365.44,19 -358.51,19 		"/>
		<rect x="-366.18" y="33.97" class="st0" width="10.67" height="1"/>
		<g>
			<path class="st0" d="M-344.39,34.31c-0.15,0-0.3,0.01-0.49,0c-0.53-0.02-0.58-0.09-0.73-0.11c-0.22-0.03-0.44-0.09-0.62-0.16
				c-0.03-0.01-0.14-0.06-0.17-0.07c-1.88-0.76-1.7-1.27-1.7-3.71V19.81h3.5v-0.78l-3.5,0V13l-0.46,0.01
				c-1.18,6.34-3.44,5.96-6.64,6.02v0.79l3.37,0.03v11.27c0,3.2,2.31,3.46,3.86,3.62c0.66,0.07,1.11,0.08,1.57,0.07
				c1.53-0.03,2.24-0.09,2.55-0.13c0-0.21,0-0.18,0-0.39C-343.95,34.29-344.14,34.31-344.39,34.31z"/>
		</g>
	</g>
	<g>
		<polygon class="st0" points="-308.19,34.82 -308.18,26.23 -305.91,26.23 -305.92,34.82 		"/>
		<polygon class="st0" points="-334.88,34.88 -334.88,26.23 -334.88,26.23 -332.03,26.23 -328.56,33.07 -328.52,33.07 
			-325.31,26.23 -322.36,26.23 -322.37,34.88 -324.71,34.88 -324.7,29.27 -324.74,29.27 -327.74,34.88 -329.35,34.88 -332.24,29.27 
			-332.28,29.27 -332.32,34.88 		"/>
		<polygon class="st0" points="-278.17,34.82 -278.17,26.23 -275.91,26.23 -275.91,30.06 -270.88,30.06 -270.9,26.23 -268.63,26.23 
			-268.63,34.82 -270.9,34.82 -270.88,31.01 -275.91,31.01 -275.91,34.82 		"/>
		<path class="st0" d="M-255.99,26.23h-1.85l-4.52,8.59h1.89l1.31-2.16h4.3l1.31,2.16h1.89L-255.99,26.23 M-256.99,28.92l0.34,0.59
			L-256.99,28.92L-256.99,28.92 M-258.61,31.71l1.58-2.78l1.6,2.78H-258.61z"/>
		<path class="st0" d="M-241.49,26.23h-1.85l-4.52,8.59h1.89l1.31-2.16h4.31l1.31,2.16h1.89L-241.49,26.23 M-242.47,28.92h0.33
			h-0.35H-242.47 M-244.11,31.71l1.59-2.78l1.6,2.78H-244.11z"/>
		<path class="st0" d="M-287.44,29.41c-0.33-0.49-1.04-1.29-2.94-1.29c-2.58,0-3.65,1.48-3.65,2.65c0,1.34,1.35,2.52,3.65,2.52
			c1.5,0,2.44-0.31,2.94-1.11h2.22c-0.81,1.71-2.79,2.64-5.16,2.64c-3.51,0-6.1-2.06-6.1-4.05c0-2.08,2.73-4.05,6.1-4.05
			c3.02,0,4.75,1.55,5.16,2.69H-287.44z"/>
	</g>
</g>
<g>
	<g>
		<path class="st1" d="M-127.95,23.29c1.07-1.02,2.37-1.53,3.93-1.53c1.56,0,2.87,0.51,3.94,1.54c1.15,1.11,1.73,2.59,1.73,4.44
			c0,1.88-0.6,3.37-1.79,4.48c-1.07,0.99-2.36,1.49-3.88,1.49c-1.62,0-2.97-0.55-4.04-1.65c-1.09-1.12-1.63-2.56-1.63-4.32
			C-129.69,25.89-129.11,24.41-127.95,23.29z M-126.66,31.78c0.72,0.87,1.6,1.31,2.65,1.31c1.02,0,1.89-0.42,2.62-1.27
			c0.73-0.85,1.09-2.2,1.09-4.07c0-1.89-0.36-3.26-1.1-4.1c-0.73-0.84-1.6-1.26-2.61-1.26c-1.04,0-1.92,0.43-2.64,1.3
			c-0.72,0.87-1.08,2.22-1.08,4.05C-127.73,29.56-127.37,30.91-126.66,31.78z"/>
		<rect x="-73.9" y="21" class="st1" width="1.76" height="12.91"/>
		<path class="st1" d="M-61.94,21h-0.34l-4.92,12.91h0.87l1.47-4.18h4.55l1.56,4.18h1.91L-61.94,21z M-64.57,29.03l1.99-4.79
			l1.99,4.79H-64.57z"/>
		<path class="st1" d="M-109.74,32.77c-0.21,0.01-0.43,0.01-0.66,0.01c-0.4,0-0.66,0-0.81-0.01c-0.14,0-0.28-0.01-0.41-0.03
			c-0.22-0.03-0.37-0.1-0.43-0.21c-0.06-0.11-0.09-0.26-0.09-0.45V21h-1.77v12.91h7.99l0-1.13H-109.74z"/>
		<path class="st1" d="M-96.93,32.78c-1.08,0-1.73-0.03-1.95-0.09c-0.22-0.06-0.33-0.26-0.33-0.61v-4.29h4.98V27.1l-4.98,0v-3.88
			c0-0.23,0.03-0.38,0.09-0.46c0.06-0.08,0.22-0.12,0.48-0.12h0.41l0,0h4.97l0-1.65h-7.7v12.91h8.03v-1.13h-3.55
			C-96.63,32.78-96.78,32.78-96.93,32.78z"/>
		<polygon class="st1" points="-79.69,32.8 -79.69,33.91 -88.45,33.91 -88.45,33.71 -81.88,22.65 -87.68,22.65 -87.68,21 -79.58,21 
			-79.58,21 -86.14,32.8 		"/>
		<path class="st1" d="M-136.49,27.14l-1.75-0.94c-0.66-0.35-1.14-0.69-1.46-1.01c-0.31-0.32-0.47-0.7-0.47-1.15
			c0-0.5,0.2-0.89,0.61-1.17c0.4-0.28,0.88-0.42,1.43-0.42c0.71,0,1.41,0.2,2.13,0.66c0.5,0.32,0.91,0.79,1.23,1.43h0.78
			c-0.68-1.91-2.52-2.46-2.52-2.46c-0.68-0.25-1.3-0.33-1.76-0.33c-1.1,0-1.99,0.29-2.66,0.88c-0.67,0.58-1,1.31-1,2.18
			c0,0.67,0.28,1.27,0.85,1.81c0.3,0.29,0.71,0.58,1.23,0.86l1.7,0.92c0.98,0.54,1.63,0.94,1.94,1.2c0.46,0.42,0.7,0.91,0.7,1.48
			c0,0.63-0.23,1.12-0.7,1.47c-0.47,0.35-1.02,0.53-1.66,0.53c-1.17,0-2.16-0.4-2.95-1.21c-0.36-0.37-0.63-0.83-0.92-1.41h-0.78
			c0.28,0.75,1.08,2.21,2.87,2.94c0.63,0.26,1.32,0.3,1.94,0.3c1.23,0,2.24-0.31,3.03-0.91c0.79-0.61,1.18-1.37,1.18-2.28
			c0-0.68-0.22-1.26-0.66-1.76C-134.62,28.27-135.39,27.73-136.49,27.14z"/>
	</g>
	<path class="st1" d="M-168.45,16.21h2.05l-0.55,6.14h-0.95L-168.45,16.21z"/>
	<path class="st1" d="M-152.82,25.94c-0.73-0.68-1.79-1.26-3.96-2.3c-1.83-0.87-3.02-1.69-3.57-2.21c-0.55-0.52-0.81-1.12-0.81-1.69
		c0-0.91,0.33-1.68,0.96-2.22c0.64-0.56,1.48-0.91,2.66-0.92c1.18-0.01,2.21,0.57,2.87,1.13c0.64,0.55,1.09,1.44,1.42,2.64h0.88
		c-0.2-1.09-0.36-2.28-0.48-3.7c-0.8,0-1.46-0.13-2.18-0.26c-0.94-0.18-1.36-0.38-2.5-0.41c-2.24-0.06-3.65,0.77-4.32,1.25
		c-1.14,0.83-1.87,2.05-1.84,3.37c0.02,0.88,0.33,1.59,0.99,2.3c0.66,0.7,2.12,1.5,4.25,2.52c1.86,0.89,3.03,1.65,3.72,2.29
		c0.59,0.54,0.81,1.3,0.81,1.95c0,1.02-0.33,1.8-0.99,2.36c-0.65,0.57-1.69,0.93-2.88,0.93c-1.49,0-2.73-0.6-3.52-1.27
		c-0.79-0.67-1.44-1.67-1.97-3.18c0,0,0-0.01-0.01-0.01h-0.81c0,0,0,0.01,0,0.01c0.17,1.38,0.29,2.76,0.35,4.14
		c0.71,0,1.45,0.1,2.58,0.35c1.22,0.26,1.93,0.54,3.33,0.63c1.98,0.13,3.5-0.43,4.64-1.41c1.23-1.05,1.68-2.3,1.6-3.74
		C-151.64,27.61-152.11,26.6-152.82,25.94z"/>
</g>
<g>
	<path class="st1" d="M36.95,19.07c-3.39,0-6.14,2.77-6.14,6.19s2.75,6.19,6.14,6.19s6.14-2.77,6.14-6.19S40.33,19.07,36.95,19.07z
		 M36.96,29.48c-2.25,0-4.07-1.89-4.07-4.21s1.82-4.21,4.07-4.21c2.25,0,4.07,1.89,4.07,4.21S39.21,29.48,36.96,29.48z"/>
	<polygon class="st1" points="45.63,30.99 47.39,30.99 48.22,23.51 48.34,23.5 50.86,30.99 52.79,30.99 55.33,23.5 55.45,23.51 
		56.22,30.99 57.98,30.99 56.82,19.15 54.69,19.15 51.82,27.64 48.99,19.15 46.88,19.15 	"/>
	<rect x="61.2" y="19.17" class="st1" width="1.91" height="11.81"/>
	<polygon class="st1" points="67.46,30.99 69.5,30.99 69.5,22.84 74.87,30.99 76.88,30.99 76.88,19.2 74.84,19.2 74.84,27.4 
		69.44,19.2 67.46,19.2 	"/>
	<path class="st1" d="M89.9,22.6l1.45-1.43c0,0-1.81-2.38-5.64-2.13c0,0-3.22,0.1-4.98,3.17c0,0-2.01,3.48,0.62,6.9
		c0,0,1.58,2.23,4.85,2.29c0,0,2.91,0.29,4.75-2.09c0,0,1.45-1.62,1.29-4.06h-5.82v1.93h3.56c0,0-0.84,2.52-3.75,2.27
		c0,0-2.4,0.08-3.75-2.4c0,0-0.96-1.88,0.1-3.85c0,0,1.17-2.23,3.83-2.15C86.4,21.04,88.27,20.94,89.9,22.6z"/>
	<path class="st1" d="M107.93,22.02l1.6-1.27c0,0-1.33-1.62-3.3-1.73c0,0-2.68-0.29-3.69,1.98c0,0-0.85,1.74,1.44,3.53l2.51,1.95
		c0,0,1.72,1.13,1.03,2.21c0,0-0.56,1.05-2.2,0.67c0,0-0.91-0.28-1.67-1.45l-1.86,1c0,0,1.25,2.39,3.9,2.35c0,0,3.02,0.29,4.03-2.21
		c0,0,0.86-1.99-1.33-3.72c0,0-2.43-1.83-2.64-2.01l-0.75-0.63c0,0-0.84-0.72-0.22-1.42c0,0,0.78-0.82,2.07-0.16
		C106.83,21.09,107.5,21.46,107.93,22.02z"/>
	<polygon class="st1" points="112.16,21.22 112.16,19.17 120.66,19.17 120.66,21.23 117.44,21.23 117.44,30.99 115.3,30.99 
		115.3,21.23 	"/>
	<polygon class="st1" points="130.4,21.21 130.4,19.2 123.79,19.2 123.79,30.99 130.4,30.99 130.4,29.02 125.84,29.02 125.84,25.87 
		130.4,25.87 130.4,23.89 125.76,23.89 125.76,21.21 	"/>
	<path class="st1" d="M141.57,21.6c-0.74-2.18-2.92-2.28-2.92-2.28c-1.2-0.13-2.94-0.12-2.94-0.12h-1.91v11.78h1.97l0.01-4.58
		c2.5-0.06,2.86-0.13,2.86-0.13c1.88-0.24,2.72-1.83,2.72-1.83C142.12,22.94,141.57,21.6,141.57,21.6z M140.06,22.92
		c0,1.86-2.55,1.65-2.55,1.65h-1.73v-3.55h1.64c1.48-0.01,1.97,0.38,1.97,0.38C140.14,21.87,140.06,22.92,140.06,22.92z"/>
	<path class="st1" d="M28.05,28.02v2.34c0,0-2.69,1.98-6.53,0.37c0,0-3.05-1.25-3.3-5.13c0,0-0.35-3.47,2.68-5.46
		c0,0,3.2-2.34,7.14-0.09v2.35c0,0-1.59-1.55-4.27-1.21c0,0-2.87,0.42-3.43,3.28c0,0-0.26,1.26,0.26,2.41c0,0,0.6,1.86,2.78,2.36
		C23.38,29.24,25.94,29.98,28.05,28.02z"/>
</g>
</svg>
