<?xml version="1.0" encoding="utf-8"?>
<!-- Generator: Adobe Illustrator 23.0.0, SVG Export Plug-In . SVG Version: 6.00 Build 0)  -->
<svg version="1.1" id="Layer_1" xmlns="http://www.w3.org/2000/svg" xmlns:xlink="http://www.w3.org/1999/xlink" x="0px" y="0px"
	 width="160px" height="50px" viewBox="0 0 160 50" style="enable-background:new 0 0 160 50;" xml:space="preserve">
<style type="text/css">
	<!--.st0{fill:#231916;}
	.st1{fill:#231F20;}-->
</style>
<g>
	<rect x="53.06" y="21.13" class="st0" width="2.94" height="8.83"/>
	<polygon class="st0" points="19.01,29.84 19,21.34 19,21 22.15,21 25.97,28 26.01,28 29.55,21 32.8,21 32.8,29.84 30.22,29.84 
		30.22,23.81 30.18,23.81 26.88,29.84 25.1,29.84 21.91,23.81 21.87,23.81 21.84,29.84 	"/>
	<polygon class="st0" points="96.04,29.96 96.04,21.04 98.51,21.04 98.51,25.11 104.42,25.11 104.42,21.04 106.92,21.04 
		106.92,29.96 104.42,29.96 104.42,26.15 98.51,26.15 98.51,29.96 	"/>
	<path class="st0" d="M120.12,21h-2.04l-4.87,9h2.08l1.45-2.45h4.74l1.45,2.45h2.08L120.12,21 M119.14,23.43l0.38,0.65L119.14,23.43
		L119.14,23.43 M117.35,26.5l1.74-3.07l1.76,3.07H117.35z"/>
	<path class="st0" d="M136.11,21h-2.04l-4.87,9h2.08l1.45-2.45h4.74l1.45,2.45H141L136.11,21 M135.13,23.43h0.37h-0.38H135.13
		 M133.33,26.5l1.75-3.07l1.76,3.07H133.33z"/>
	<path class="st0" d="M80.97,23.97c-0.36-0.54-1.14-1.42-3.24-1.42c-2.84,0-4.02,1.63-4.02,2.92c0,1.47,1.49,2.77,4.02,2.77
		c1.65,0,2.69-0.34,3.24-1.22h2.44c-0.89,1.89-3.07,2.91-5.69,2.91c-3.87,0-6.73-2.27-6.73-4.46c0-2.29,3.01-4.46,6.73-4.46
		c3.33,0,5.24,1.71,5.69,2.97H80.97z"/>
</g>
<g>
	<g>
		<g>
			<path class="st0" d="M213.57,13.06c0.6,0,1.11,0.21,1.52,0.62c0.41,0.41,0.62,0.91,0.62,1.5s-0.21,1.08-0.63,1.5
				c-0.42,0.41-0.92,0.62-1.51,0.62c-0.59,0-1.09-0.21-1.51-0.62c-0.42-0.41-0.63-0.91-0.63-1.5c0-0.6,0.21-1.1,0.63-1.51
				C212.48,13.27,212.98,13.06,213.57,13.06z"/>
		</g>
		<g>
			<path class="st0" d="M215.77,19.03l0.01,15.75h-3.72l-0.01-15.75H215.77z"/>
		</g>
		<polygon class="st0" points="215.51,19.84 208.59,19.84 208.58,19 215.5,19 		"/>
		<rect x="207.84" y="33.97" class="st0" width="10.67" height="1"/>
		<g>
			<path class="st0" d="M229.63,34.31c-0.15,0-0.3,0.01-0.49,0c-0.53-0.02-0.58-0.09-0.73-0.11c-0.22-0.03-0.44-0.09-0.62-0.16
				c-0.03-0.01-0.14-0.06-0.17-0.07c-1.88-0.76-1.7-1.27-1.7-3.71V19.81h3.5v-0.78l-3.5,0V13l-0.46,0.01
				c-1.18,6.34-3.44,5.96-6.64,6.02v0.79l3.37,0.03v11.27c0,3.2,2.31,3.46,3.86,3.62c0.66,0.07,1.11,0.08,1.57,0.07
				c1.53-0.03,2.24-0.09,2.55-0.13c0-0.21,0-0.18,0-0.39C230.07,34.29,229.88,34.31,229.63,34.31z"/>
		</g>
	</g>
	<g>
		<polygon class="st0" points="265.82,34.82 265.83,26.23 268.1,26.23 268.09,34.82 		"/>
		<polygon class="st0" points="239.13,34.88 239.13,26.23 239.13,26.23 241.99,26.23 245.46,33.07 245.5,33.07 248.71,26.23 
			251.66,26.23 251.64,34.88 249.3,34.88 249.31,29.27 249.28,29.27 246.27,34.88 244.66,34.88 241.78,29.27 241.73,29.27 
			241.7,34.88 		"/>
		<polygon class="st0" points="295.85,34.82 295.85,26.23 298.1,26.23 298.1,30.06 303.13,30.06 303.12,26.23 305.38,26.23 
			305.38,34.82 303.12,34.82 303.13,31.01 298.1,31.01 298.1,34.82 		"/>
		<path class="st0" d="M318.02,26.23h-1.85l-4.52,8.59h1.89l1.31-2.16h4.3l1.31,2.16h1.89L318.02,26.23 M317.03,28.92l0.34,0.59
			L317.03,28.92L317.03,28.92 M315.41,31.71l1.58-2.78l1.6,2.78H315.41z"/>
		<path class="st0" d="M332.53,26.23h-1.85l-4.52,8.59h1.89l1.31-2.16h4.31l1.31,2.16h1.89L332.53,26.23 M331.54,28.92h0.33h-0.35
			H331.54 M329.91,31.71l1.59-2.78l1.6,2.78H329.91z"/>
		<path class="st0" d="M286.57,29.41c-0.33-0.49-1.04-1.29-2.94-1.29c-2.58,0-3.65,1.48-3.65,2.65c0,1.34,1.35,2.52,3.65,2.52
			c1.5,0,2.44-0.31,2.94-1.11h2.22c-0.81,1.71-2.79,2.64-5.16,2.64c-3.51,0-6.1-2.06-6.1-4.05c0-2.08,2.73-4.05,6.1-4.05
			c3.02,0,4.75,1.55,5.16,2.69H286.57z"/>
	</g>
</g>
<g>
	<g>
		<path class="st1" d="M444.33,23.1c1.19-1.13,2.64-1.7,4.37-1.7c1.74,0,3.19,0.57,4.38,1.71c1.28,1.23,1.92,2.88,1.92,4.94
			c0,2.08-0.66,3.75-1.99,4.98c-1.19,1.1-2.62,1.65-4.31,1.65c-1.8,0-3.3-0.61-4.49-1.83c-1.21-1.25-1.81-2.85-1.81-4.8
			C442.39,25.99,443.04,24.35,444.33,23.1z M445.76,32.53c0.8,0.97,1.78,1.45,2.94,1.45c1.14,0,2.1-0.47,2.91-1.41
			c0.81-0.94,1.21-2.45,1.21-4.52c0-2.1-0.4-3.62-1.23-4.56c-0.81-0.93-1.78-1.4-2.89-1.4c-1.16,0-2.13,0.48-2.94,1.45
			c-0.8,0.97-1.2,2.47-1.2,4.5C444.57,30.07,444.97,31.57,445.76,32.53z"/>
		<rect x="505.13" y="21.66" class="st1" width="1.96" height="13.24"/>
		<path class="st1" d="M518.79,21.46h-0.38l-5.47,13.44h0.97l1.63-4.65h5.05l1.74,4.65h2.12L518.79,21.46z M515.87,29.48l2.21-5.32
			l2.21,5.32H515.87z"/>
		<path class="st1" d="M464.89,33.64c-0.23,0.01-0.47,0.01-0.73,0.01c-0.44,0-0.74,0-0.9-0.01c-0.16,0-0.31-0.01-0.45-0.04
			c-0.25-0.03-0.41-0.11-0.48-0.23c-0.07-0.12-0.1-0.29-0.1-0.5V21.4h-1.96v13.5h8.88l0.01-1.26H464.89z"/>
		<path class="st1" d="M479.13,33.65c-1.2,0-1.92-0.04-2.17-0.1c-0.24-0.07-0.36-0.29-0.36-0.67V28.1h5.53v-0.76l-5.53,0v-4.31
			c0-0.25,0.03-0.42,0.1-0.51c0.07-0.09,0.25-0.13,0.53-0.13h0.45l0,0h5.52l0-0.73h-8.56V34.9h8.92v-1.25h-3.95
			C479.46,33.65,479.3,33.65,479.13,33.65z"/>
		<polygon class="st1" points="498.31,33.67 498.31,34.9 488.58,34.9 488.58,34.68 495.87,22.39 489.43,22.39 489.43,21.66 
			498.43,21.66 498.43,21.88 491.14,33.67 		"/>
		<path class="st1" d="M434.87,27.38l-1.95-1.05c-0.73-0.39-1.27-0.76-1.62-1.12c-0.35-0.35-0.52-0.78-0.52-1.27
			c0-0.56,0.22-0.98,0.68-1.3c0.45-0.31,0.98-0.46,1.59-0.46c0.78,0,1.56,0.22,2.37,0.73c0.56,0.35,1.02,0.88,1.36,1.59h0.87
			c-0.76-2.12-2.8-2.74-2.8-2.74c-0.75-0.28-1.45-0.37-1.95-0.37c-1.23,0-2.21,0.33-2.96,0.97c-0.74,0.65-1.12,1.46-1.12,2.43
			c0,0.74,0.31,1.41,0.94,2.02c0.34,0.32,0.79,0.64,1.37,0.95l1.89,1.03c1.09,0.6,1.81,1.04,2.15,1.34
			c0.52,0.46,0.78,1.01,0.78,1.64c0,0.7-0.26,1.24-0.77,1.63c-0.52,0.39-1.13,0.59-1.84,0.59c-1.3,0-2.4-0.45-3.28-1.35
			c-0.4-0.41-0.7-0.93-1.02-1.56h-0.87c0.31,0.83,1.2,2.46,3.19,3.26c0.7,0.29,1.46,0.34,2.15,0.34c1.37,0,2.49-0.34,3.37-1.01
			c0.87-0.68,1.31-1.52,1.31-2.53c0-0.75-0.24-1.4-0.73-1.95C436.95,28.63,436.09,28.04,434.87,27.38z"/>
	</g>
	<path class="st1" d="M399.54,16.24h2.27l-0.61,6.82h-1.06L399.54,16.24z"/>
	<path class="st1" d="M416.9,27.05c-0.82-0.76-1.99-1.4-4.4-2.55c-2.03-0.97-3.35-1.88-3.97-2.46c-0.61-0.58-0.9-1.24-0.9-1.88
		c0-1.01,0.37-1.86,1.07-2.47c0.71-0.62,1.65-1.01,2.96-1.02c1.31-0.01,2.46,0.63,3.19,1.26c0.71,0.61,1.21,1.6,1.57,2.94h0.98
		c-0.22-1.21-0.4-2.53-0.54-4.11c-0.89,0-1.62-0.14-2.42-0.29c-1.04-0.2-1.51-0.42-2.77-0.45c-2.49-0.06-4.05,0.85-4.8,1.39
		c-1.27,0.92-2.08,2.28-2.05,3.74c0.02,0.98,0.37,1.77,1.1,2.55c0.74,0.78,2.36,1.67,4.72,2.8c2.07,0.99,3.36,1.83,4.13,2.54
		c0.65,0.6,0.9,1.44,0.9,2.17c0,1.13-0.37,1.99-1.1,2.62c-0.73,0.63-1.88,1.03-3.19,1.03c-1.66,0-3.04-0.67-3.91-1.41
		c-0.88-0.75-1.6-1.86-2.19-3.53c0-0.01,0-0.01-0.01-0.01h-0.9c0,0,0,0.01,0,0.01c0.19,1.53,0.32,3.07,0.39,4.6
		c0.79,0,1.61,0.12,2.86,0.39c1.36,0.29,2.15,0.6,3.7,0.7c2.2,0.15,3.88-0.48,5.16-1.57c1.37-1.17,1.87-2.56,1.78-4.16
		C418.21,28.9,417.69,27.78,416.9,27.05z"/>
</g>
<g>
	<path class="st1" d="M610.96,19.07c-3.39,0-6.14,2.77-6.14,6.19s2.75,6.19,6.14,6.19s6.14-2.77,6.14-6.19
		S614.35,19.07,610.96,19.07z M610.97,29.48c-2.25,0-4.07-1.89-4.07-4.21s1.82-4.21,4.07-4.21c2.25,0,4.07,1.89,4.07,4.21
		S613.22,29.48,610.97,29.48z"/>
	<polygon class="st1" points="619.65,30.99 621.4,30.99 622.23,23.51 622.35,23.5 624.87,30.99 626.81,30.99 629.35,23.5 
		629.47,23.51 630.24,30.99 632,30.99 630.83,19.15 628.7,19.15 625.84,27.64 623.01,19.15 620.9,19.15 	"/>
	<rect x="635.22" y="19.17" class="st1" width="1.91" height="11.81"/>
	<polygon class="st1" points="641.47,30.99 643.52,30.99 643.52,22.84 648.88,30.99 650.9,30.99 650.9,19.2 648.85,19.2 
		648.85,27.4 643.46,19.2 641.47,19.2 	"/>
	<path class="st1" d="M663.92,22.6l1.45-1.43c0,0-1.81-2.38-5.64-2.13c0,0-3.22,0.1-4.98,3.17c0,0-2.01,3.48,0.63,6.9
		c0,0,1.58,2.23,4.85,2.29c0,0,2.91,0.29,4.75-2.09c0,0,1.45-1.62,1.29-4.06h-5.82v1.93h3.56c0,0-0.84,2.52-3.75,2.27
		c0,0-2.4,0.08-3.75-2.4c0,0-0.96-1.88,0.1-3.85c0,0,1.17-2.23,3.83-2.15C660.41,21.04,662.29,20.94,663.92,22.6z"/>
	<path class="st1" d="M681.94,22.02l1.6-1.27c0,0-1.33-1.62-3.3-1.73c0,0-2.68-0.29-3.69,1.98c0,0-0.85,1.74,1.44,3.53l2.51,1.95
		c0,0,1.72,1.13,1.03,2.21c0,0-0.56,1.05-2.2,0.67c0,0-0.91-0.28-1.67-1.45l-1.86,1c0,0,1.25,2.39,3.9,2.35c0,0,3.02,0.29,4.03-2.21
		c0,0,0.86-1.99-1.33-3.72c0,0-2.43-1.83-2.64-2.01L679,22.68c0,0-0.84-0.72-0.22-1.42c0,0,0.78-0.82,2.07-0.16
		C680.85,21.09,681.51,21.46,681.94,22.02z"/>
	<polygon class="st1" points="686.18,21.22 686.18,19.17 694.68,19.17 694.68,21.23 691.45,21.23 691.45,30.99 689.31,30.99 
		689.31,21.23 	"/>
	<polygon class="st1" points="704.42,21.21 704.42,19.2 697.81,19.2 697.81,30.99 704.42,30.99 704.42,29.02 699.86,29.02 
		699.86,25.87 704.42,25.87 704.42,23.89 699.77,23.89 699.77,21.21 	"/>
	<path class="st1" d="M715.59,21.6c-0.74-2.18-2.92-2.28-2.92-2.28c-1.2-0.13-2.94-0.12-2.94-0.12h-1.91v11.78h1.97l0.01-4.58
		c2.5-0.06,2.86-0.13,2.86-0.13c1.88-0.24,2.72-1.83,2.72-1.83C716.14,22.94,715.59,21.6,715.59,21.6z M714.07,22.92
		c0,1.86-2.55,1.65-2.55,1.65h-1.73v-3.55h1.64c1.48-0.01,1.97,0.38,1.97,0.38C714.15,21.87,714.07,22.92,714.07,22.92z"/>
	<path class="st1" d="M602.06,28.02v2.34c0,0-2.69,1.98-6.53,0.37c0,0-3.05-1.25-3.3-5.13c0,0-0.35-3.47,2.68-5.46
		c0,0,3.2-2.34,7.14-0.09v2.35c0,0-1.59-1.55-4.27-1.21c0,0-2.87,0.42-3.43,3.28c0,0-0.26,1.26,0.26,2.41c0,0,0.6,1.86,2.78,2.36
		C597.39,29.24,599.95,29.98,602.06,28.02z"/>
</g>
</svg>
