<?xml version="1.0" encoding="utf-8"?>
<!-- Generator: Adobe Illustrator 23.0.0, SVG Export Plug-In . SVG Version: 6.00 Build 0)  -->
<svg version="1.1" id="Layer_1" xmlns="http://www.w3.org/2000/svg" xmlns:xlink="http://www.w3.org/1999/xlink" x="0px" y="0px"
	 width="160px" height="50px" viewBox="0 0 160 50" style="enable-background:new 0 0 160 50;" xml:space="preserve">
<style type="text/css">
	.st0{fill:#231916;}
	.st1{fill:#231F20;}
</style>
<g>
	<rect x="-329.62" y="21.13" class="st0" width="2.94" height="8.83"/>
	<polygon class="st0" points="-363.66,29.84 -363.68,21.34 -363.68,21 -360.53,21 -356.71,28 -356.66,28 -353.13,21 -349.88,21 
		-349.88,29.84 -352.46,29.84 -352.46,23.81 -352.5,23.81 -355.8,29.84 -357.57,29.84 -360.77,23.81 -360.81,23.81 -360.84,29.84 	
		"/>
	<polygon class="st0" points="-286.64,29.96 -286.64,21.04 -284.17,21.04 -284.17,25.11 -278.26,25.11 -278.26,21.04 -275.76,21.04 
		-275.76,29.96 -278.26,29.96 -278.26,26.15 -284.17,26.15 -284.17,29.96 	"/>
	<path class="st0" d="M-262.55,21h-2.04l-4.87,9h2.08l1.45-2.45h4.74l1.45,2.45h2.08L-262.55,21 M-263.54,23.43l0.38,0.65
		L-263.54,23.43L-263.54,23.43 M-265.32,26.5l1.74-3.07l1.76,3.07H-265.32z"/>
	<path class="st0" d="M-246.57,21h-2.04l-4.87,9h2.08l1.45-2.45h4.74l1.45,2.45h2.08L-246.57,21 M-247.55,23.43h0.37h-0.38H-247.55
		 M-249.35,26.5l1.75-3.07l1.76,3.07H-249.35z"/>
	<path class="st0" d="M-301.7,23.97c-0.36-0.54-1.14-1.42-3.24-1.42c-2.84,0-4.02,1.63-4.02,2.92c0,1.47,1.49,2.77,4.02,2.77
		c1.65,0,2.69-0.34,3.24-1.22h2.44c-0.89,1.89-3.07,2.91-5.69,2.91c-3.87,0-6.73-2.27-6.73-4.46c0-2.29,3.01-4.46,6.73-4.46
		c3.33,0,5.24,1.71,5.69,2.97H-301.7z"/>
</g>
<g>
	<g>
		<g>
			<path class="st0" d="M-169.1,13.06c0.6,0,1.11,0.21,1.52,0.62c0.41,0.41,0.62,0.91,0.62,1.5s-0.21,1.08-0.63,1.5
				c-0.42,0.41-0.92,0.62-1.51,0.62c-0.59,0-1.09-0.21-1.51-0.62c-0.42-0.41-0.63-0.91-0.63-1.5c0-0.6,0.21-1.1,0.63-1.51
				C-170.2,13.27-169.69,13.06-169.1,13.06z"/>
		</g>
		<g>
			<path class="st0" d="M-166.91,19.03l0.01,15.75h-3.72l-0.01-15.75H-166.91z"/>
		</g>
		<polygon class="st0" points="-167.16,19.84 -174.09,19.84 -174.1,19 -167.17,19 		"/>
		<rect x="-174.84" y="33.97" class="st0" width="10.67" height="1"/>
		<g>
			<path class="st0" d="M-153.05,34.31c-0.15,0-0.3,0.01-0.49,0c-0.53-0.02-0.58-0.09-0.73-0.11c-0.22-0.03-0.44-0.09-0.62-0.16
				c-0.03-0.01-0.14-0.06-0.17-0.07c-1.88-0.76-1.7-1.27-1.7-3.71V19.81h3.5v-0.78l-3.5,0V13l-0.46,0.01
				c-1.18,6.34-3.44,5.96-6.64,6.02v0.79l3.37,0.03v11.27c0,3.2,2.31,3.46,3.86,3.62c0.66,0.07,1.11,0.08,1.57,0.07
				c1.53-0.03,2.24-0.09,2.55-0.13c0-0.21,0-0.18,0-0.39C-152.61,34.29-152.8,34.31-153.05,34.31z"/>
		</g>
	</g>
	<g>
		<polygon class="st0" points="-116.85,34.82 -116.84,26.23 -114.57,26.23 -114.58,34.82 		"/>
		<polygon class="st0" points="-143.54,34.88 -143.54,26.23 -143.54,26.23 -140.69,26.23 -137.22,33.07 -137.18,33.07 
			-133.97,26.23 -131.02,26.23 -131.03,34.88 -133.37,34.88 -133.36,29.27 -133.4,29.27 -136.41,34.88 -138.02,34.88 -140.9,29.27 
			-140.94,29.27 -140.98,34.88 		"/>
		<polygon class="st0" points="-86.83,34.82 -86.83,26.23 -84.58,26.23 -84.58,30.06 -79.55,30.06 -79.56,26.23 -77.29,26.23 
			-77.29,34.82 -79.56,34.82 -79.55,31.01 -84.58,31.01 -84.58,34.82 		"/>
		<path class="st0" d="M-64.65,26.23h-1.85l-4.52,8.59h1.89l1.31-2.16h4.3l1.31,2.16h1.89L-64.65,26.23 M-65.65,28.92l0.34,0.59
			L-65.65,28.92L-65.65,28.92 M-67.27,31.71l1.58-2.78l1.6,2.78H-67.27z"/>
		<path class="st0" d="M-50.15,26.23H-52l-4.52,8.59h1.89l1.31-2.16h4.31l1.31,2.16h1.89L-50.15,26.23 M-51.13,28.92h0.33h-0.35
			H-51.13 M-52.77,31.71l1.59-2.78l1.6,2.78H-52.77z"/>
		<path class="st0" d="M-96.1,29.41c-0.33-0.49-1.04-1.29-2.94-1.29c-2.58,0-3.65,1.48-3.65,2.65c0,1.34,1.35,2.52,3.65,2.52
			c1.5,0,2.44-0.31,2.94-1.11h2.22c-0.81,1.71-2.79,2.64-5.16,2.64c-3.51,0-6.1-2.06-6.1-4.05c0-2.08,2.73-4.05,6.1-4.05
			c3.02,0,4.75,1.55,5.16,2.69H-96.1z"/>
	</g>
</g>
<g>
	<g>
		<path class="st1" d="M63.39,23.29c1.07-1.02,2.37-1.53,3.93-1.53c1.56,0,2.87,0.51,3.94,1.54c1.15,1.11,1.73,2.59,1.73,4.44
			c0,1.88-0.6,3.37-1.79,4.48c-1.07,0.99-2.36,1.49-3.88,1.49c-1.62,0-2.97-0.55-4.04-1.65c-1.09-1.12-1.63-2.56-1.63-4.32
			C61.65,25.89,62.23,24.41,63.39,23.29z M64.68,31.78c0.72,0.87,1.6,1.31,2.65,1.31c1.02,0,1.89-0.42,2.62-1.27
			c0.73-0.85,1.09-2.2,1.09-4.07c0-1.89-0.36-3.26-1.1-4.1c-0.73-0.84-1.6-1.26-2.61-1.26c-1.04,0-1.92,0.43-2.64,1.3
			c-0.72,0.87-1.08,2.22-1.08,4.05C63.61,29.56,63.97,30.91,64.68,31.78z"/>
		<rect x="117.44" y="21" class="st1" width="1.76" height="12.91"/>
		<path class="st1" d="M129.4,21h-0.34l-4.92,12.91h0.87l1.47-4.18h4.55l1.56,4.18h1.91L129.4,21z M126.77,29.03l1.99-4.79
			l1.99,4.79H126.77z"/>
		<path class="st1" d="M81.6,32.77c-0.21,0.01-0.43,0.01-0.66,0.01c-0.4,0-0.66,0-0.81-0.01c-0.14,0-0.28-0.01-0.41-0.03
			c-0.22-0.03-0.37-0.1-0.43-0.21c-0.06-0.11-0.09-0.26-0.09-0.45V21h-1.77v12.91h7.99l0-1.13H81.6z"/>
		<path class="st1" d="M94.41,32.78c-1.08,0-1.73-0.03-1.95-0.09c-0.22-0.06-0.33-0.26-0.33-0.61v-4.29h4.98V27.1l-4.98,0v-3.88
			c0-0.23,0.03-0.38,0.09-0.46c0.06-0.08,0.22-0.12,0.48-0.12h0.41l0,0h4.97l0-1.65h-7.7v12.91h8.03v-1.13h-3.55
			C94.71,32.78,94.56,32.78,94.41,32.78z"/>
		<polygon class="st1" points="111.64,32.8 111.65,33.91 102.89,33.91 102.89,33.71 109.45,22.65 103.66,22.65 103.65,21 111.76,21 
			111.76,21 105.19,32.8 		"/>
		<path class="st1" d="M54.85,27.14L53.1,26.2c-0.66-0.35-1.14-0.69-1.46-1.01c-0.31-0.32-0.47-0.7-0.47-1.15
			c0-0.5,0.2-0.89,0.61-1.17c0.4-0.28,0.88-0.42,1.43-0.42c0.71,0,1.41,0.2,2.13,0.66c0.5,0.32,0.91,0.79,1.23,1.43h0.78
			c-0.68-1.91-2.52-2.46-2.52-2.46c-0.68-0.25-1.3-0.33-1.76-0.33c-1.1,0-1.99,0.29-2.66,0.88c-0.67,0.58-1,1.31-1,2.18
			c0,0.67,0.28,1.27,0.85,1.81c0.3,0.29,0.71,0.58,1.23,0.86l1.7,0.92c0.98,0.54,1.63,0.94,1.94,1.2c0.46,0.42,0.7,0.91,0.7,1.48
			c0,0.63-0.23,1.12-0.7,1.47c-0.47,0.35-1.02,0.53-1.66,0.53c-1.17,0-2.16-0.4-2.95-1.21c-0.36-0.37-0.63-0.83-0.92-1.41h-0.78
			c0.28,0.75,1.08,2.21,2.87,2.94c0.63,0.26,1.32,0.3,1.94,0.3c1.23,0,2.24-0.31,3.03-0.91c0.79-0.61,1.18-1.37,1.18-2.28
			c0-0.68-0.22-1.26-0.66-1.76C56.72,28.27,55.94,27.73,54.85,27.14z"/>
	</g>
	<path class="st1" d="M22.89,16.21h2.05l-0.55,6.14h-0.95L22.89,16.21z"/>
	<path class="st1" d="M38.52,25.94c-0.73-0.68-1.79-1.26-3.96-2.3c-1.83-0.87-3.02-1.69-3.57-2.21c-0.55-0.52-0.81-1.12-0.81-1.69
		c0-0.91,0.33-1.68,0.96-2.22c0.64-0.56,1.48-0.91,2.66-0.92c1.18-0.01,2.21,0.57,2.87,1.13c0.64,0.55,1.09,1.44,1.42,2.64h0.88
		c-0.2-1.09-0.36-2.28-0.48-3.7c-0.8,0-1.46-0.13-2.18-0.26c-0.94-0.18-1.36-0.38-2.5-0.41c-2.24-0.06-3.65,0.77-4.32,1.25
		c-1.14,0.83-1.87,2.05-1.84,3.37c0.02,0.88,0.33,1.59,0.99,2.3c0.66,0.7,2.12,1.5,4.25,2.52c1.86,0.89,3.03,1.65,3.72,2.29
		c0.59,0.54,0.81,1.3,0.81,1.95c0,1.02-0.33,1.8-0.99,2.36c-0.65,0.57-1.69,0.93-2.88,0.93c-1.49,0-2.73-0.6-3.52-1.27
		c-0.79-0.67-1.44-1.67-1.97-3.18c0,0,0-0.01-0.01-0.01h-0.81c0,0,0,0.01,0,0.01c0.17,1.38,0.29,2.76,0.35,4.14
		c0.71,0,1.45,0.1,2.58,0.35c1.22,0.26,1.93,0.54,3.33,0.63c1.98,0.13,3.5-0.43,4.64-1.41c1.23-1.05,1.68-2.3,1.6-3.74
		C39.7,27.61,39.23,26.6,38.52,25.94z"/>
</g>
<g>
	<path class="st1" d="M228.28,19.07c-3.39,0-6.14,2.77-6.14,6.19s2.75,6.19,6.14,6.19c3.39,0,6.14-2.77,6.14-6.19
		S231.67,19.07,228.28,19.07z M228.29,29.48c-2.25,0-4.07-1.89-4.07-4.21s1.82-4.21,4.07-4.21c2.25,0,4.07,1.89,4.07,4.21
		S230.54,29.48,228.29,29.48z"/>
	<polygon class="st1" points="236.97,30.99 238.73,30.99 239.56,23.51 239.67,23.5 242.2,30.99 244.13,30.99 246.67,23.5 
		246.79,23.51 247.56,30.99 249.32,30.99 248.16,19.15 246.03,19.15 243.16,27.64 240.33,19.15 238.22,19.15 	"/>
	<rect x="252.54" y="19.17" class="st1" width="1.91" height="11.81"/>
	<polygon class="st1" points="258.79,30.99 260.84,30.99 260.84,22.84 266.21,30.99 268.22,30.99 268.22,19.2 266.18,19.2 
		266.18,27.4 260.78,19.2 258.79,19.2 	"/>
	<path class="st1" d="M281.24,22.6l1.45-1.43c0,0-1.81-2.38-5.64-2.13c0,0-3.22,0.1-4.98,3.17c0,0-2.01,3.48,0.63,6.9
		c0,0,1.58,2.23,4.85,2.29c0,0,2.91,0.29,4.75-2.09c0,0,1.45-1.62,1.29-4.06h-5.82v1.93h3.56c0,0-0.84,2.52-3.75,2.27
		c0,0-2.4,0.08-3.75-2.4c0,0-0.96-1.88,0.1-3.85c0,0,1.17-2.23,3.83-2.15C277.73,21.04,279.61,20.94,281.24,22.6z"/>
	<path class="st1" d="M299.27,22.02l1.6-1.27c0,0-1.33-1.62-3.3-1.73c0,0-2.68-0.29-3.69,1.98c0,0-0.85,1.74,1.44,3.53l2.51,1.95
		c0,0,1.72,1.13,1.03,2.21c0,0-0.56,1.05-2.2,0.67c0,0-0.91-0.28-1.67-1.45l-1.86,1c0,0,1.25,2.39,3.9,2.35c0,0,3.02,0.29,4.03-2.21
		c0,0,0.86-1.99-1.33-3.72c0,0-2.43-1.83-2.64-2.01l-0.75-0.63c0,0-0.84-0.72-0.22-1.42c0,0,0.78-0.82,2.07-0.16
		C298.17,21.09,298.84,21.46,299.27,22.02z"/>
	<polygon class="st1" points="303.5,21.22 303.5,19.17 312,19.17 312,21.23 308.78,21.23 308.78,30.99 306.64,30.99 306.64,21.23 	
		"/>
	<polygon class="st1" points="321.74,21.21 321.74,19.2 315.13,19.2 315.13,30.99 321.74,30.99 321.74,29.02 317.18,29.02 
		317.18,25.87 321.74,25.87 321.74,23.89 317.1,23.89 317.1,21.21 	"/>
	<path class="st1" d="M332.91,21.6c-0.74-2.18-2.92-2.28-2.92-2.28c-1.2-0.13-2.94-0.12-2.94-0.12h-1.91v11.78h1.97l0.01-4.58
		c2.5-0.06,2.86-0.13,2.86-0.13c1.88-0.24,2.72-1.83,2.72-1.83C333.46,22.94,332.91,21.6,332.91,21.6z M331.4,22.92
		c0,1.86-2.55,1.65-2.55,1.65h-1.73v-3.55h1.64c1.48-0.01,1.97,0.38,1.97,0.38C331.48,21.87,331.4,22.92,331.4,22.92z"/>
	<path class="st1" d="M219.39,28.02v2.34c0,0-2.69,1.98-6.53,0.37c0,0-3.05-1.25-3.3-5.13c0,0-0.35-3.47,2.68-5.46
		c0,0,3.2-2.34,7.14-0.09v2.35c0,0-1.59-1.55-4.27-1.21c0,0-2.87,0.42-3.43,3.28c0,0-0.26,1.26,0.26,2.41c0,0,0.6,1.86,2.78,2.36
		C214.71,29.24,217.27,29.98,219.39,28.02z"/>
</g>
</svg>
